<svg width="40" height="40" viewBox="0 0 40 40" fill="none" xmlns="http://www.w3.org/2000/svg">
<circle cx="20" cy="20" r="20" fill="#3CD856"/>
<g clip-path="url(#clip0_20_265)">
<path d="M20.561 10.6047C18.1458 10.6055 15.8298 11.543 14.1223 13.2111C12.4149 14.8793 11.4557 17.1414 11.4558 19.5C11.4564 20.084 11.5145 20.6666 11.6292 21.2398C11.7448 21.2299 11.8638 21.2266 11.9828 21.2266C12.6957 21.2262 13.3972 21.4009 14.0228 21.7346C14.6484 22.0683 15.178 22.5503 15.563 23.1362C15.948 23.7221 16.1759 24.3931 16.2258 25.0876C16.2757 25.782 16.146 26.4776 15.8486 27.1102C17.0508 27.8202 18.4048 28.249 19.8048 28.363C21.2048 28.477 22.6129 28.2732 23.9188 27.7675C25.2248 27.2618 26.3933 26.468 27.3328 25.448C28.2724 24.428 28.9577 23.2096 29.335 21.8881C29.7123 20.5665 29.7715 19.1776 29.5078 17.83C29.2442 16.4825 28.6649 15.2127 27.8152 14.1201C26.9656 13.0274 25.8687 12.1416 24.6102 11.5317C23.3517 10.9219 21.9659 10.6046 20.561 10.6047ZM24.2534 22.0201C24.2305 22.1483 24.1987 22.2747 24.1582 22.3986C24.0342 22.7601 23.8366 23.0932 23.5771 23.378C23.3176 23.6628 23.0018 23.8932 22.6486 24.0555C22.3361 24.2122 22.0015 24.323 21.6558 24.3842C21.6014 24.3942 21.581 24.4141 21.5776 24.4539C21.5746 24.467 21.5735 24.4804 21.5742 24.4938C21.5776 24.7694 21.5776 25.0417 21.5742 25.3172V25.3272C21.5751 25.3911 21.5671 25.4547 21.5504 25.5165C21.506 25.7194 21.3971 25.9035 21.2394 26.0426C21.0816 26.1816 20.8829 26.2685 20.6717 26.291C20.4604 26.3134 20.2473 26.2702 20.0626 26.1675C19.8779 26.0648 19.7311 25.9079 19.643 25.719C19.6276 25.6869 19.6151 25.6536 19.6056 25.6194C19.5852 25.5624 19.5715 25.5034 19.5648 25.4434C19.5614 25.4102 19.558 25.377 19.558 25.3438C19.5546 25.0549 19.5546 24.7661 19.558 24.4805C19.5588 24.4638 19.5577 24.4471 19.5546 24.4307C19.5478 24.3842 19.524 24.361 19.4594 24.3477C18.856 24.2349 18.2913 23.9757 17.8172 23.594C17.5389 23.3901 17.3197 23.1189 17.1814 22.8071C17.1642 22.7582 17.1506 22.7083 17.1406 22.6576C17.1247 22.5699 17.1224 22.4804 17.1338 22.392C17.1713 22.1282 17.3069 21.8872 17.5146 21.7147C17.701 21.565 17.9364 21.486 18.1776 21.4922C18.4234 21.4711 18.6711 21.4868 18.912 21.5387C19.166 21.6116 19.38 21.78 19.507 22.0068C19.6058 22.1882 19.7539 22.3394 19.9351 22.4437C20.1163 22.5479 20.3235 22.6013 20.5338 22.5979C20.8181 22.6227 21.1035 22.5637 21.3532 22.4285C21.4537 22.3707 21.5411 22.2934 21.6101 22.2015C21.679 22.1096 21.7282 22.005 21.7544 21.894C21.7855 21.7665 21.7878 21.6339 21.7612 21.5055C21.7244 21.312 21.6198 21.1371 21.4654 21.0107C21.1105 20.7496 20.706 20.56 20.2754 20.4529C19.6039 20.2725 18.9489 20.0382 18.317 19.7523C17.8423 19.5394 17.4408 19.1969 17.161 18.7662C17.0739 18.6152 17.0055 18.4547 16.957 18.288C16.9332 18.205 16.9128 18.1253 16.8958 18.0423C16.8018 17.6424 16.7902 17.2281 16.8618 16.8238C16.9706 16.291 17.2505 15.806 17.6608 15.4392C18.0797 15.066 18.5904 14.8052 19.1432 14.6821C19.2554 14.6556 19.3676 14.6323 19.4832 14.6124C19.5342 14.6058 19.5512 14.5825 19.5546 14.5427C19.5576 14.5342 19.5588 14.5251 19.558 14.5161C19.5546 14.2505 19.5614 13.9849 19.558 13.7159C19.5579 13.6435 19.5647 13.5712 19.5784 13.5001C19.6235 13.2781 19.7447 13.0779 19.9222 12.9324C20.0996 12.7868 20.3226 12.7048 20.5542 12.6999C20.7591 12.6946 20.9607 12.751 21.1317 12.8615C21.3026 12.972 21.4346 13.1312 21.5096 13.3175C21.529 13.3706 21.5449 13.425 21.5572 13.4802C21.5713 13.5501 21.577 13.6214 21.5742 13.6927V14.0878C21.5776 14.1874 21.5776 14.2837 21.5776 14.38V14.5261C21.5768 14.5416 21.5779 14.5572 21.581 14.5725C21.5878 14.6157 21.615 14.6356 21.6762 14.6489C22.2324 14.7646 22.7522 15.0082 23.1926 15.3595C23.4036 15.5232 23.5501 15.7531 23.6074 16.0103C23.6437 16.1723 23.6425 16.3402 23.604 16.5017C23.5619 16.6914 23.4716 16.8677 23.3415 17.0145C23.2114 17.1613 23.0456 17.2738 22.8594 17.3417C22.6042 17.4374 22.3233 17.4461 22.0623 17.3666C21.8014 17.2871 21.5755 17.1239 21.4212 16.9035C21.2534 16.6848 21.018 16.5247 20.7498 16.447C20.4815 16.3692 20.1948 16.3779 19.932 16.4718C19.7998 16.5125 19.6812 16.5873 19.5891 16.6885C19.4969 16.7896 19.4344 16.9132 19.4084 17.0462C19.3978 17.0854 19.3909 17.1254 19.388 17.1658C19.3778 17.2429 19.3778 17.321 19.388 17.3982C19.3953 17.5063 19.4291 17.611 19.4866 17.7037C19.5632 17.839 19.676 17.9515 19.813 18.0291C20.1187 18.2035 20.4423 18.346 20.7786 18.4541C21.3906 18.6632 22.006 18.8625 22.601 19.1181C23.0697 19.3129 23.4845 19.6133 23.8114 19.9947C24.024 20.2483 24.172 20.5476 24.2432 20.868C24.2968 21.1156 24.3163 21.3691 24.301 21.6217C24.2956 21.7555 24.2797 21.8887 24.2534 22.0201Z" fill="white"/>
<path d="M20.561 30.268C22.7418 30.268 24.8736 29.6365 26.6868 28.4533C28.5001 27.2701 29.9133 25.5884 30.7479 23.6208C31.5824 21.6532 31.8008 19.4882 31.3753 17.3994C30.9499 15.3106 29.8997 13.392 28.3577 11.886C26.8156 10.3801 24.851 9.35457 22.7121 8.93909C20.5732 8.5236 18.3562 8.73684 16.3414 9.55184C14.3267 10.3668 12.6046 11.747 11.393 13.5178C10.1815 15.2885 9.53479 17.3704 9.53479 19.5001C9.53492 20.2419 9.61238 20.9817 9.76599 21.7081L10.7656 21.5056C10.3411 19.5296 10.5537 17.4737 11.3741 15.6205C12.1946 13.7673 13.5827 12.2077 15.3476 11.1561C17.1124 10.1046 19.1675 9.6126 21.2303 9.74788C23.2931 9.88316 25.2624 10.639 26.8674 11.9116C28.4725 13.1842 29.6346 14.911 30.1939 16.8547C30.7533 18.7984 30.6825 20.8636 29.9913 22.7664C29.3 24.6693 28.0223 26.3163 26.3337 27.4812C24.6451 28.6461 22.6284 29.2717 20.561 29.2719C18.6661 29.2738 16.8098 28.7486 15.2094 27.7578L14.662 28.5979C16.4257 29.6911 18.472 30.2704 20.561 30.268Z" fill="white"/>
<path d="M11.9828 21.8906C11.9182 21.8906 11.857 21.8906 11.7924 21.8939C10.9129 21.9415 10.0824 22.3045 9.46003 22.9133C9.25736 23.1113 9.07933 23.332 8.92963 23.5707C8.77864 23.8134 8.65874 24.0732 8.57263 24.3444C8.42178 24.8157 8.3756 25.313 8.43716 25.8031C8.49872 26.2932 8.66661 26.7649 8.92963 27.1866C8.96703 27.2464 9.00443 27.3028 9.04863 27.3626V27.3659C9.08603 27.4223 9.13024 27.4755 9.17443 27.5319V27.5352C9.21809 27.5896 9.26462 27.6417 9.31383 27.6913V27.6946C9.36143 27.7444 9.40903 27.7975 9.46003 27.844C9.87536 28.2496 10.3867 28.5489 10.9488 28.7154C11.5109 28.8818 12.1063 28.9103 12.6824 28.7983C13.2585 28.6864 13.7973 28.4373 14.2513 28.0733C14.7052 27.7093 15.0602 27.2416 15.2848 26.7116C15.5094 26.1816 15.5967 25.6056 15.5389 25.0348C15.4811 24.464 15.28 23.9159 14.9534 23.4391C14.6269 22.9623 14.1849 22.5716 13.6667 22.3015C13.1486 22.0314 12.5702 21.8903 11.9828 21.8906ZM13.9514 24.1883C13.2952 24.7959 11.704 27.0272 11.687 27.0505C11.6539 27.0975 11.6098 27.1362 11.5584 27.1633C11.507 27.1904 11.4497 27.2052 11.3912 27.2065C11.3912 27.2032 11.3878 27.2032 11.3844 27.2032C11.3276 27.2029 11.2716 27.1902 11.2204 27.1661C11.1692 27.1419 11.1242 27.107 11.0886 27.0637L9.97683 25.6758C9.94669 25.6381 9.92445 25.595 9.91139 25.5489C9.89832 25.5028 9.89469 25.4546 9.90069 25.4071C9.90668 25.3596 9.9222 25.3138 9.94635 25.2721C9.9705 25.2305 10.0028 25.1939 10.0414 25.1645C10.08 25.1351 10.1242 25.1134 10.1714 25.1006C10.2187 25.0878 10.268 25.0843 10.3166 25.0901C10.3652 25.096 10.4122 25.1112 10.4548 25.1347C10.4974 25.1583 10.5349 25.1899 10.565 25.2276L11.3674 26.227C11.9988 25.3267 12.6906 24.4682 13.438 23.6571C13.4734 23.624 13.5152 23.5981 13.5609 23.5808C13.6066 23.5636 13.6554 23.5554 13.7044 23.5566C13.7533 23.5578 13.8016 23.5685 13.8463 23.588C13.8911 23.6076 13.9314 23.6355 13.965 23.6703C14.0334 23.7409 14.0704 23.835 14.0679 23.9321C14.0653 24.0292 14.0234 24.1213 13.9514 24.1883Z" fill="white"/>
<path d="M19.388 17.3982C19.4011 17.5051 19.4346 17.6087 19.4866 17.7037C19.4291 17.611 19.3953 17.5063 19.388 17.3982Z" fill="white"/>
<path d="M17.6608 15.4392C17.2505 15.806 16.9706 16.291 16.8618 16.8238C16.9674 16.2871 17.2477 15.798 17.6608 15.4293C18.0797 15.0561 18.5904 14.7953 19.1432 14.6722C19.2554 14.6457 19.371 14.6224 19.4832 14.6025C19.5308 14.5959 19.5512 14.5759 19.5546 14.5427C19.5512 14.5826 19.5342 14.6058 19.4832 14.6125C19.3676 14.6324 19.2554 14.6556 19.1432 14.6822C18.5904 14.8052 18.0797 15.0661 17.6608 15.4392Z" fill="white"/>
<path d="M21.7544 21.8939C21.7281 22.005 21.679 22.1096 21.6101 22.2015C21.5411 22.2934 21.4537 22.3706 21.3532 22.4285C21.1035 22.5637 20.8181 22.6227 20.5338 22.5979C20.3235 22.6013 20.1163 22.5479 19.9351 22.4436C19.7539 22.3393 19.6058 22.1882 19.507 22.0068C19.38 21.78 19.166 21.6116 18.912 21.5387C18.671 21.4868 18.4234 21.4711 18.1776 21.4922C17.9364 21.486 17.701 21.5649 17.5146 21.7146C17.3069 21.8872 17.1713 22.1282 17.1338 22.392C17.1659 22.1237 17.3022 21.8777 17.5146 21.7047C17.7017 21.5564 17.9366 21.4776 18.1776 21.4822C18.4234 21.4611 18.671 21.4768 18.912 21.5287C19.1655 21.6026 19.3791 21.7707 19.507 21.9969C19.6052 22.1787 19.7532 22.3302 19.9346 22.4346C20.1159 22.539 20.3234 22.5921 20.5338 22.5879C20.8181 22.612 21.1033 22.5531 21.3532 22.4186C21.4521 22.3612 21.5385 22.2854 21.6074 22.1953C21.6762 22.1053 21.7262 22.0029 21.7544 21.8939Z" fill="white"/>
<path d="M19.5784 13.5001C19.6214 13.2763 19.7417 13.0738 19.9194 12.9263C20.097 12.7788 20.3211 12.6954 20.5542 12.69C20.7589 12.6853 20.9602 12.742 21.131 12.8524C21.3018 12.9628 21.4339 13.1217 21.5096 13.3075C21.531 13.3635 21.5469 13.4213 21.5572 13.4802C21.5449 13.425 21.529 13.3707 21.5096 13.3175C21.4345 13.1312 21.3026 12.972 21.1316 12.8615C20.9607 12.751 20.7591 12.6946 20.5542 12.6999C20.3225 12.7049 20.0996 12.7869 19.9221 12.9324C19.7447 13.0779 19.6234 13.2782 19.5784 13.5001Z" fill="white"/>
<path d="M21.581 14.5725C21.5912 14.609 21.6184 14.6256 21.6762 14.6389C22.2314 14.7574 22.7506 15.0007 23.1926 15.3495C23.4063 15.5151 23.5532 15.7491 23.6074 16.0102C23.5501 15.7531 23.4035 15.5232 23.1926 15.3594C22.7522 15.0081 22.2324 14.7645 21.6762 14.6489C21.615 14.6356 21.5878 14.6157 21.581 14.5725Z" fill="white"/>
<path d="M24.2432 20.8679C24.172 20.5476 24.024 20.2483 23.8114 19.9947C23.4844 19.6132 23.0697 19.3128 22.601 19.1181C22.006 18.8624 21.3906 18.6632 20.7786 18.454C20.4423 18.3459 20.1186 18.2035 19.813 18.029C19.676 17.9515 19.5631 17.839 19.4866 17.7036C19.5656 17.8345 19.6781 17.9432 19.813 18.019C20.1186 18.1935 20.4423 18.336 20.7786 18.4441C21.3906 18.6532 22.006 18.8525 22.601 19.1081C23.0697 19.3029 23.4844 19.6033 23.8114 19.9847C24.0275 20.24 24.1758 20.5433 24.2432 20.8679Z" fill="white"/>
<path d="M16.957 18.2882C17.0055 18.4549 17.0739 18.6154 17.161 18.7663C17.0712 18.6202 17.0025 18.4627 16.957 18.2981C16.9332 18.2118 16.9128 18.1288 16.8958 18.0425C16.9128 18.1255 16.9332 18.2052 16.957 18.2882Z" fill="white"/>
<path d="M19.5546 24.4308C19.5444 24.3909 19.5206 24.371 19.4594 24.3577C18.8553 24.247 18.2901 23.9876 17.8172 23.604C17.5404 23.3986 17.3216 23.1278 17.1814 22.8171C17.1615 22.7657 17.1478 22.7122 17.1406 22.6577C17.1506 22.7084 17.1642 22.7583 17.1814 22.8071C17.3197 23.1189 17.5389 23.3902 17.8172 23.5941C18.2913 23.9758 18.856 24.2349 19.4594 24.3478C19.524 24.3611 19.5478 24.3843 19.5546 24.4308Z" fill="white"/>
<path d="M21.5504 25.5166C21.5086 25.7215 21.401 25.9081 21.2431 26.0492C21.0853 26.1903 20.8855 26.2785 20.6728 26.3011C20.4601 26.3237 20.2455 26.2795 20.0603 26.1748C19.8751 26.0701 19.7289 25.9105 19.643 25.7191C19.7311 25.908 19.8779 26.065 20.0626 26.1677C20.2473 26.2704 20.4604 26.3136 20.6717 26.2911C20.8829 26.2687 21.0816 26.1818 21.2394 26.0427C21.3971 25.9037 21.506 25.7196 21.5504 25.5166Z" fill="white"/>
<path d="M21.7612 21.5054C21.7227 21.3154 21.6182 21.1441 21.4654 21.0206C21.1105 20.7595 20.706 20.5699 20.2754 20.4628C19.6047 20.28 18.9499 20.0457 18.317 19.7622C17.839 19.5496 17.4366 19.2028 17.161 18.7661C17.4408 19.1969 17.8423 19.5394 18.317 19.7523C18.9489 20.0381 19.6039 20.2725 20.2754 20.4529C20.706 20.5599 21.1105 20.7496 21.4654 21.0107C21.6198 21.1371 21.7244 21.312 21.7612 21.5054Z" fill="white"/>
<path d="M21.5776 14.3799C21.5776 14.2837 21.5776 14.1874 21.5742 14.0878V13.6926C21.5742 13.8188 21.5742 13.9549 21.5776 14.0877V14.3799Z" fill="white"/>
<path d="M19.4084 17.0464C19.4344 16.9134 19.4968 16.7897 19.589 16.6886C19.6812 16.5875 19.7997 16.5126 19.932 16.4719C20.1948 16.378 20.4815 16.3693 20.7497 16.4471C21.018 16.5248 21.2534 16.6849 21.4212 16.9036C21.5755 17.124 21.8013 17.2872 22.0623 17.3667C22.3233 17.4463 22.6041 17.4375 22.8594 17.3419C23.0456 17.2739 23.2114 17.1614 23.3415 17.0146C23.4716 16.8679 23.5618 16.6915 23.604 16.5018C23.5633 16.6933 23.4737 16.8717 23.3435 17.0203C23.2134 17.1689 23.0468 17.2829 22.8594 17.3518C22.6041 17.4472 22.3234 17.4558 22.0624 17.3763C21.8015 17.2968 21.5756 17.1338 21.4212 16.9135C21.2536 16.6947 21.0181 16.5345 20.7498 16.4567C20.4815 16.379 20.1947 16.3878 19.932 16.4819C19.8012 16.522 19.6837 16.5954 19.5917 16.6947C19.4996 16.7939 19.4363 16.9153 19.4084 17.0464Z" fill="white"/>
<path d="M24.1582 22.3987C24.0361 22.7623 23.8393 23.0977 23.5797 23.3844C23.3201 23.671 23.0032 23.9028 22.6486 24.0655C22.335 24.2198 22.0008 24.3304 21.6558 24.3942C21.6048 24.4042 21.5844 24.4208 21.5776 24.454C21.581 24.4141 21.6014 24.3942 21.6558 24.3843C22.0015 24.323 22.336 24.2122 22.6486 24.0555C23.0018 23.8933 23.3176 23.6628 23.5771 23.378C23.8365 23.0933 24.0342 22.7601 24.1582 22.3987Z" fill="white"/>
<path d="M24.2534 22.0203C24.2338 22.149 24.2019 22.2758 24.1582 22.3988C24.1987 22.2749 24.2305 22.1484 24.2534 22.0203Z" fill="white"/>
</g>
<defs>
<clipPath id="clip0_20_265">
<rect width="34" height="29" fill="white" transform="translate(3 5)"/>
</clipPath>
</defs>
</svg>
