<svg width="18" height="20" viewBox="0 0 18 20" fill="none" xmlns="http://www.w3.org/2000/svg">
<g id="pdf_icon 7" clip-path="url(#clip0_990_996)">
<g id="Group">
<g id="Group_2">
<path id="Vector" d="M12.5496 0H4.01961C2.95961 0 2.09961 0.86 2.09961 1.92V4.53H3.09961V1.92C3.09961 1.41 3.50961 1 4.01961 1H11.8396V4.46C11.8396 5.25 12.4796 5.9 13.2796 5.9H16.6096V17.46C16.6096 17.96 16.1996 18.38 15.6896 18.38H4.01961C3.51961 18.38 3.09961 17.97 3.09961 17.46V12.07H2.09961V17.46C2.09961 18.52 2.95961 19.38 4.01961 19.38H15.6896C16.7496 19.38 17.6096 18.52 17.6096 17.46V5.21L12.5496 0Z" fill="#6D7081"/>
<g id="Group_3">
<path id="Vector_2" d="M8.99 11.09H1.88C0.84 11.09 0 10.24 0 9.21003V7.41003C0 6.37003 0.84 5.53003 1.88 5.53003H8.99C10.03 5.53003 10.87 6.37003 10.87 7.41003V9.21003C10.87 10.24 10.03 11.09 8.99 11.09Z" fill="#6D7081"/>
</g>
<g id="Group_4">
<path id="Vector_3" d="M3.56922 8.29002C3.40922 8.44002 3.16922 8.52002 2.83922 8.52002H2.30922V9.68002H1.94922V6.90002H2.84922C3.15922 6.90002 3.39922 6.98002 3.56922 7.13002C3.73922 7.28002 3.81922 7.48002 3.81922 7.72002C3.80922 7.95002 3.72922 8.14002 3.56922 8.29002ZM3.29922 8.09002C3.38922 8.00002 3.43922 7.88002 3.43922 7.71002C3.43922 7.37002 3.23922 7.19002 2.84922 7.19002H2.30922V8.21002H2.84922C3.04922 8.22002 3.19922 8.18002 3.29922 8.09002Z" fill="white"/>
<path id="Vector_4" d="M5.91977 7.07002C6.13977 7.18002 6.30977 7.35002 6.42977 7.56002C6.54977 7.77002 6.60977 8.01002 6.60977 8.30002C6.60977 8.59002 6.54977 8.83002 6.42977 9.04002C6.31977 9.25002 6.13977 9.41002 5.91977 9.52002C5.69977 9.63002 5.43977 9.69002 5.12977 9.69002H4.25977V6.90002H5.12977C5.43977 6.90002 5.69977 6.96002 5.91977 7.07002ZM5.95977 9.10002C6.14977 8.91002 6.23977 8.64002 6.23977 8.30002C6.23977 7.95002 6.13977 7.68002 5.94977 7.49002C5.75977 7.29002 5.48977 7.19002 5.12977 7.19002H4.62977V9.38002H5.12977C5.48977 9.39002 5.76977 9.29002 5.95977 9.10002Z" fill="white"/>
<path id="Vector_5" d="M8.66984 6.90002V7.20002H7.45984V8.14002H8.43984V8.44002H7.45984V9.70002H7.08984V6.90002H8.66984Z" fill="white"/>
</g>
</g>
</g>
</g>
<defs>
<clipPath id="clip0_990_996">
<rect width="17.6" height="19.37" fill="white"/>
</clipPath>
</defs>
</svg>
