<svg width="40" height="40" viewBox="0 0 40 40" fill="none" xmlns="http://www.w3.org/2000/svg">
<g clip-path="url(#clip0_1254_1126)">
<path d="M20 40C31.0457 40 40 31.0457 40 20C40 8.9543 31.0457 0 20 0C8.9543 0 0 8.9543 0 20C0 31.0457 8.9543 40 20 40Z" fill="#FA5A7D"/>
<mask id="mask0_1254_1126" style="mask-type:luminance" maskUnits="userSpaceOnUse" x="6" y="6" width="28" height="28">
<path d="M34 6H6V34H34V6Z" fill="white"/>
</mask>
<g mask="url(#mask0_1254_1126)">
<path d="M30.8078 10.9699C30.8067 10.0739 30.4503 9.21493 29.8168 8.58136C29.1832 7.94779 28.3242 7.59139 27.4282 7.59033H12.5462C11.6502 7.59139 10.7912 7.94779 10.1576 8.58136C9.5241 9.21493 9.16769 10.0739 9.16664 10.9699V16.5587C9.16689 16.7896 9.25871 17.011 9.42196 17.1742C9.58522 17.3375 9.80657 17.4293 10.0374 17.4295H15.1474V19.6247C14.1295 19.6909 13.1421 19.9994 12.2676 20.5246C11.3931 21.0498 10.6568 21.7764 10.1201 22.6439C9.58353 23.5115 9.26205 24.4947 9.18255 25.5117C9.10305 26.5287 9.26784 27.5499 9.66316 28.4903C10.0584 29.4307 10.6729 30.2629 11.4551 30.9176C12.2374 31.5723 13.1648 32.0305 14.1601 32.254C15.1555 32.4775 16.1898 32.4598 17.1769 32.2025C18.1639 31.9451 19.0752 31.4554 19.8346 30.7743L20.8958 31.9699C20.9586 32.0406 21.0353 32.0977 21.121 32.1376C21.2067 32.1776 21.2997 32.1996 21.3942 32.2023C21.5853 32.2045 21.7695 32.131 21.9066 31.9979L22.9482 30.9423L23.8582 31.9699C23.9214 32.0409 23.9985 32.0982 24.0848 32.1381C24.171 32.1781 24.2645 32.2 24.3595 32.2023C24.4546 32.2047 24.5491 32.1875 24.6372 32.1519C24.7253 32.1162 24.8051 32.0629 24.8718 31.9951L25.8938 30.9591L26.8962 31.9951C26.9608 32.0622 27.0382 32.1156 27.1238 32.1521C27.2094 32.1887 27.3015 32.2077 27.3946 32.2079H27.3974C27.4907 32.2071 27.5828 32.1877 27.6684 32.1506C27.7541 32.1136 27.8314 32.0598 27.8958 31.9923L28.8898 30.9451L29.8446 31.9895C29.9218 32.0739 30.0227 32.133 30.1341 32.159C30.2455 32.185 30.3622 32.1767 30.4688 32.1352C30.5753 32.0937 30.6669 32.021 30.7314 31.9265C30.7959 31.8321 30.8304 31.7203 30.8302 31.6059L30.8078 10.9699ZM10.0374 16.5895C10.0293 16.5895 10.0215 16.5862 10.0157 16.5804C10.0099 16.5747 10.0067 16.5669 10.0066 16.5587V10.9699C10.0075 10.2967 10.2753 9.65121 10.7514 9.17513C11.2275 8.69905 11.8729 8.43121 12.5462 8.43033H12.787C13.4128 8.43088 14.0129 8.67974 14.4554 9.12228C14.898 9.56482 15.1469 10.1649 15.1474 10.7907V16.5895H10.0374ZM10.0066 26.0087C10.0066 24.9089 10.3327 23.8338 10.9438 22.9193C11.5548 22.0048 12.4233 21.2921 13.4394 20.8712C14.4555 20.4503 15.5736 20.3402 16.6523 20.5548C17.7309 20.7693 18.7218 21.299 19.4995 22.0767C20.2772 22.8543 20.8068 23.8452 21.0214 24.9239C21.2359 26.0026 21.1258 27.1207 20.7049 28.1368C20.284 29.1529 19.5713 30.0213 18.6568 30.6324C17.7423 31.2434 16.6672 31.5695 15.5674 31.5695C14.0931 31.5678 12.6797 30.9814 11.6372 29.9389C10.5948 28.8964 10.0083 27.483 10.0066 26.0087ZM29.2258 30.0631C29.1824 30.0189 29.1305 29.984 29.0733 29.9604C29.016 29.9368 28.9545 29.9251 28.8926 29.9259C28.8313 29.927 28.7708 29.9402 28.7146 29.9647C28.6584 29.9892 28.6075 30.0246 28.565 30.0687L27.3974 31.3007L26.2326 30.0967C26.1454 30.0078 26.0268 29.9565 25.9022 29.9539C25.7793 29.959 25.6622 30.0077 25.5718 30.0911L24.3874 31.2923L23.315 30.0799C23.2744 30.034 23.2249 29.9968 23.1696 29.9703C23.1143 29.9439 23.0542 29.9288 22.993 29.9259C22.9282 29.9238 22.8637 29.9346 22.8031 29.9576C22.7425 29.9807 22.6871 30.0156 22.6402 30.0603L21.4222 31.2923L20.4254 30.1695C21.2002 29.2684 21.7086 28.1692 21.8933 26.9952C22.078 25.8212 21.9319 24.619 21.4712 23.5235C21.0106 22.428 20.2536 21.4826 19.2855 20.7934C18.3173 20.1042 17.1762 19.6985 15.9902 19.6219V10.7907C15.9899 10.346 15.8966 9.90629 15.7162 9.49978C15.5359 9.09328 15.2725 8.72899 14.943 8.43033H27.4282C28.1015 8.43121 28.7469 8.69905 29.223 9.17513C29.6991 9.65121 29.9669 10.2967 29.9678 10.9699L29.9902 30.9003L29.2258 30.0631Z" fill="white"/>
<path d="M28.0662 20.2295H23.127C23.0156 20.2295 22.9088 20.2737 22.83 20.3525C22.7513 20.4313 22.707 20.5381 22.707 20.6495C22.707 20.7609 22.7513 20.8677 22.83 20.9465C22.9088 21.0252 23.0156 21.0695 23.127 21.0695H28.0662C28.1776 21.0695 28.2844 21.0252 28.3632 20.9465C28.4419 20.8677 28.4862 20.7609 28.4862 20.6495C28.4862 20.5381 28.4419 20.4313 28.3632 20.3525C28.2844 20.2737 28.1776 20.2295 28.0662 20.2295Z" fill="white"/>
<path d="M28.0662 23.2507H23.127C23.0156 23.2507 22.9088 23.295 22.83 23.3737C22.7513 23.4525 22.707 23.5593 22.707 23.6707C22.707 23.7821 22.7513 23.889 22.83 23.9677C22.9088 24.0465 23.0156 24.0907 23.127 24.0907H28.0662C28.1776 24.0907 28.2844 24.0465 28.3632 23.9677C28.4419 23.889 28.4862 23.7821 28.4862 23.6707C28.4862 23.5593 28.4419 23.4525 28.3632 23.3737C28.2844 23.295 28.1776 23.2507 28.0662 23.2507Z" fill="white"/>
<path d="M28.0662 26.2693H23.127C23.0156 26.2693 22.9088 26.3135 22.83 26.3923C22.7513 26.4711 22.707 26.5779 22.707 26.6893C22.707 26.8007 22.7513 26.9075 22.83 26.9863C22.9088 27.065 23.0156 27.1093 23.127 27.1093H28.0662C28.1776 27.1093 28.2844 27.065 28.3632 26.9863C28.4419 26.9075 28.4862 26.8007 28.4862 26.6893C28.4862 26.5779 28.4419 26.4711 28.3632 26.3923C28.2844 26.3135 28.1776 26.2693 28.0662 26.2693Z" fill="white"/>
<path d="M18.0479 26.1459H15.7687V23.6707C15.7687 23.5593 15.7245 23.4525 15.6457 23.3737C15.5669 23.295 15.4601 23.2507 15.3487 23.2507C15.2373 23.2507 15.1305 23.295 15.0517 23.3737C14.9729 23.4525 14.9287 23.5593 14.9287 23.6707V26.5659C14.9286 26.6211 14.9394 26.6758 14.9605 26.7267C14.9816 26.7777 15.0125 26.8241 15.0516 26.8631C15.0906 26.9021 15.1369 26.933 15.1879 26.9541C15.2389 26.9752 15.2935 26.986 15.3487 26.9859H18.0479C18.1593 26.9859 18.2661 26.9417 18.3449 26.8629C18.4236 26.7842 18.4679 26.6773 18.4679 26.5659C18.4679 26.4545 18.4236 26.3477 18.3449 26.2689C18.2661 26.1902 18.1593 26.1459 18.0479 26.1459Z" fill="white"/>
<path d="M22.864 17.522C22.864 17.536 22.8667 17.5498 22.8721 17.5627C22.8774 17.5756 22.8853 17.5874 22.8951 17.5973C22.905 17.6071 22.9168 17.615 22.9297 17.6203C22.9426 17.6257 22.9564 17.6284 22.9704 17.6284H23.4128C23.4268 17.6284 23.4406 17.6257 23.4535 17.6203C23.4664 17.615 23.4782 17.6071 23.488 17.5973C23.4979 17.5874 23.5058 17.5756 23.5111 17.5627C23.5165 17.5498 23.5192 17.536 23.5192 17.522V16.9648C23.9706 16.9392 24.3988 16.7559 24.7288 16.4468C24.8759 16.2963 24.9908 16.1174 25.0664 15.9209C25.142 15.7245 25.1767 15.5147 25.1684 15.3044C25.1725 15.0789 25.1335 14.8546 25.0536 14.6436C24.9767 14.4547 24.8624 14.2833 24.7176 14.1396C24.5586 13.9817 24.3775 13.8478 24.18 13.742C23.9158 13.6015 23.6437 13.4762 23.3652 13.3668C23.1162 13.2823 22.8861 13.1501 22.6876 12.9776C22.6256 12.9097 22.5777 12.8302 22.5465 12.7437C22.5152 12.6572 22.5013 12.5655 22.5056 12.4736C22.4998 12.3769 22.5134 12.28 22.5456 12.1886C22.5778 12.0973 22.628 12.0133 22.6932 11.9416C22.7627 11.8746 22.8454 11.8229 22.9361 11.7896C23.0267 11.7564 23.1233 11.7423 23.2196 11.7484C23.3239 11.7442 23.4277 11.7643 23.523 11.8071C23.6182 11.8498 23.7022 11.9141 23.7684 11.9948C23.8987 12.1738 23.9693 12.3894 23.97 12.6108C23.9708 12.644 23.9843 12.6756 24.0078 12.699C24.0313 12.7225 24.0628 12.736 24.096 12.7368H25.034C25.0696 12.7361 25.1035 12.7212 25.1282 12.6955C25.1529 12.6697 25.1663 12.6353 25.1656 12.5996C25.1609 12.1731 25.0163 11.76 24.754 11.4236C24.4651 11.0788 24.0534 10.8599 23.606 10.8132L23.6032 10.2392C23.6032 10.2252 23.6005 10.2114 23.5951 10.1985C23.5898 10.1856 23.5819 10.1738 23.572 10.164C23.5622 10.1541 23.5504 10.1462 23.5375 10.1409C23.5246 10.1356 23.5108 10.1328 23.4968 10.1328H23.0516C23.0376 10.1328 23.0238 10.1356 23.0109 10.1409C22.998 10.1462 22.9862 10.1541 22.9763 10.164C22.9665 10.1738 22.9586 10.1856 22.9533 10.1985C22.9479 10.2114 22.9452 10.2252 22.9452 10.2392V10.7992C22.5005 10.8277 22.0801 11.0122 21.758 11.32C21.6091 11.4708 21.4926 11.6504 21.4156 11.8478C21.3386 12.0452 21.3026 12.2562 21.31 12.468C21.3044 12.708 21.3493 12.9465 21.4416 13.168C21.5265 13.362 21.6504 13.5364 21.8056 13.6804C21.973 13.8344 22.1616 13.9636 22.3656 14.064C22.6184 14.1908 22.8783 14.3029 23.144 14.4C23.3807 14.4763 23.5984 14.6023 23.7824 14.7696C23.9133 14.9182 23.9807 15.1123 23.97 15.31C23.9746 15.4068 23.9581 15.5035 23.9219 15.5934C23.8857 15.6832 23.8304 15.7642 23.76 15.8308C23.6004 15.9662 23.395 16.0354 23.186 16.024C23.0615 16.0323 22.9367 16.013 22.8206 15.9675C22.7044 15.922 22.5997 15.8515 22.514 15.7608C22.3684 15.5817 22.2875 15.3588 22.2844 15.128C22.2826 15.0955 22.2686 15.0648 22.2453 15.042C22.222 15.0192 22.191 15.0059 22.1584 15.0048H21.2176C21.182 15.0056 21.1481 15.0204 21.1234 15.0462C21.0987 15.0719 21.0853 15.1064 21.086 15.142C21.088 15.5921 21.252 16.0265 21.548 16.3656C21.8941 16.7248 22.3632 16.9398 22.8612 16.9676V17.522H22.864Z" fill="white"/>
</g>
</g>
<defs>
<clipPath id="clip0_1254_1126">
<rect width="40" height="40" fill="white"/>
</clipPath>
</defs>
</svg>
