<svg width="90" height="89" viewBox="0 0 90 89" fill="none" xmlns="http://www.w3.org/2000/svg">
<path d="M3.4 2.2C3.4 2.86274 2.86274 3.39999 2.2 3.39999C1.53726 3.39999 1 2.86274 1 2.2C1 1.53726 1.53726 1 2.2 1C2.86274 1 3.4 1.53726 3.4 2.2Z" stroke="white" stroke-opacity="0.3" stroke-width="2"/>
<path d="M35.5 82V88.9" stroke="white" stroke-opacity="0.3" stroke-width="2"/>
<path d="M38.9 85.4H32" stroke="white" stroke-opacity="0.3" stroke-width="2"/>
<path d="M86.8001 41.6998H17.8001C17.1524 41.6998 16.6001 41.1475 16.6001 40.4998C16.6001 39.8521 17.1524 39.2998 17.8001 39.2998H86.9001C87.5342 39.2998 88.0769 39.8292 88.0994 40.4592C88.019 41.1678 87.4209 41.6998 86.8001 41.6998Z" stroke="white" stroke-opacity="0.3" stroke-width="2"/>
<path d="M61.1818 22.3999H41.6C41.5826 22.3999 41.5572 22.3929 41.5321 22.3678C41.507 22.3428 41.5 22.3174 41.5 22.2999C41.5 22.2825 41.507 22.2571 41.5321 22.2321C41.5572 22.207 41.5825 22.2 41.6 22.2H61.1C61.1175 22.2 61.1428 22.207 61.1679 22.2321C61.193 22.2571 61.2 22.2825 61.2 22.2999C61.2 22.3501 61.1898 22.3824 61.1818 22.3999Z" stroke="white" stroke-opacity="0.3" stroke-width="2"/>
</svg>
