<svg width="18" height="22" viewBox="0 0 18 22" fill="none" xmlns="http://www.w3.org/2000/svg">
<g clip-path="url(#clip0_1517_1404)">
<path d="M17.2685 4.96965V17.707C17.2685 18.9819 16.1466 20.0145 14.7652 20.0145H13.2298L14.2219 18.9405H14.52C15.3101 18.9405 15.9511 18.3496 15.9511 17.6213V6.82662H1.11544V17.6213C1.11544 18.3496 1.7565 18.9405 2.5466 18.9405H6.93143L7.92507 20.0145H2.50173C1.12026 20.0145 0 18.9819 0 17.707V2.30607C0 1.03263 1.12026 0 2.50173 0H12.0022V1.74765C12.0022 3.5278 13.5664 4.96965 15.496 4.96965L17.2685 4.96965Z" fill="#768094"/>
<path d="M12.8242 0.0265198L17.2475 4.24127H15.4093C13.9813 4.24127 12.8242 3.17465 12.8242 1.85986L12.8242 0.0265198Z" fill="white"/>
<path d="M12.8242 0.0265198L17.2475 4.24127H15.4093C13.9813 4.24127 12.8242 3.17465 12.8242 1.85986L12.8242 0.0265198Z" fill="white"/>
<path d="M17.2475 4.24127H15.4093C13.9813 4.24127 12.8242 3.17465 12.8242 1.85986V0.0265198L17.2475 4.24127Z" fill="#768094"/>
<path d="M14.2776 7.90295H2.92745C2.53389 7.90295 2.21484 8.19705 2.21484 8.55983V16.8063C2.21484 17.1691 2.53389 17.4632 2.92745 17.4632H14.2776C14.6712 17.4632 14.9902 17.1691 14.9902 16.8063V8.55983C14.9902 8.19705 14.6712 7.90295 14.2776 7.90295Z" fill="#8F98AB"/>
<path d="M4.60601 10.8048H2.98047V12.3032H4.60601V10.8048Z" fill="#A2AABD"/>
<path d="M6.99273 10.8048H5.36719V12.3032H6.99273V10.8048Z" fill="#A2AABD"/>
<path d="M9.37944 10.8048H7.75391V12.3032H9.37944V10.8048Z" fill="#A2AABD"/>
<path d="M11.7662 10.8048H10.1406V12.3032H11.7662V10.8048Z" fill="#A2AABD"/>
<path d="M14.1529 10.8048H12.5273V12.3032H14.1529V10.8048Z" fill="#A2AABD"/>
<path d="M4.60601 13.0524H2.98047V14.5508H4.60601V13.0524Z" fill="#A2AABD"/>
<path d="M6.99273 13.0524H5.36719V14.5508H6.99273V13.0524Z" fill="#A2AABD"/>
<path d="M9.37944 13.0524H7.75391V14.5508H9.37944V13.0524Z" fill="#A2AABD"/>
<path d="M11.7662 13.0524H10.1406V14.5508H11.7662V13.0524Z" fill="#A2AABD"/>
<path d="M14.1529 13.0524H12.5273V14.5508H14.1529V13.0524Z" fill="#A2AABD"/>
<path d="M4.60601 15.3H2.98047V16.7984H4.60601V15.3Z" fill="#A2AABD"/>
<path d="M6.99273 15.3H5.36719V16.7984H6.99273V15.3Z" fill="#A2AABD"/>
<path d="M9.37944 15.3H7.75391V16.7984H9.37944V15.3Z" fill="#A2AABD"/>
<path d="M11.7662 15.3H10.1406V16.7984H11.7662V15.3Z" fill="black"/>
<path d="M14.1529 15.3H12.5273V16.7984H14.1529V15.3Z" fill="#A2AABD"/>
<path d="M14.0472 18.2491L13.4078 18.9405L12.4141 20.0145L10.5791 22L8.74247 20.0145L7.74883 18.9405L7.10938 18.2491H8.99248V14.1703H12.1064V18.2491H14.0472Z" fill="#768094"/>
</g>
<defs>
<clipPath id="clip0_1517_1404">
<rect width="17.2685" height="22" fill="white"/>
</clipPath>
</defs>
</svg>
