<svg width="22" height="21" viewBox="0 0 22 21" fill="none" xmlns="http://www.w3.org/2000/svg">
<path id="Vector" d="M20.778 1.074C20.0903 0.386328 19.1576 0 18.185 0C17.2124 0 16.2797 0.386328 15.592 1.074L2.62077 14.0468C2.2425 14.4248 1.98151 14.904 1.86919 15.4269L0.869326 20.0922C0.842958 20.2147 0.847714 20.3419 0.883159 20.4621C0.918605 20.5823 0.983609 20.6917 1.07223 20.7803C1.16086 20.8689 1.27028 20.9339 1.3905 20.9694C1.51071 21.0048 1.6379 21.0096 1.76043 20.9832L6.42595 19.9834C6.9488 19.8711 7.42807 19.6101 7.8061 19.2319L20.7788 6.25981C21.4663 5.57203 21.8525 4.63937 21.8525 3.66691C21.8525 2.69444 21.4663 1.76178 20.7788 1.074H20.778ZM16.6526 2.13456C17.0621 1.74344 17.6084 1.5281 18.1747 1.5346C18.741 1.54111 19.2822 1.76893 19.6826 2.16935C20.0831 2.56976 20.3109 3.11097 20.3174 3.67721C20.3239 4.24345 20.1086 4.78975 19.7174 5.19925L19.0424 5.87429L15.9775 2.81035L16.6526 2.13456ZM14.9169 3.87092L17.9817 6.93561L6.74623 18.172C6.57239 18.3458 6.35202 18.4656 6.11166 18.5171L2.57802 19.2746L3.3356 15.7419C3.38705 15.5015 3.50687 15.2812 3.68064 15.1074L14.9154 3.87167L14.9169 3.87092Z" fill="#6D7081"/>
</svg>
