<?xml version="1.0" encoding="utf-8"?>
<!-- Generator: Adobe Illustrator 25.3.0, SVG Export Plug-In . SVG Version: 6.00 Build 0)  -->
<svg version="1.1" id="Layer_1" xmlns="http://www.w3.org/2000/svg" xmlns:xlink="http://www.w3.org/1999/xlink" x="0px" y="0px"
	 viewBox="0 0 100 100" style="enable-background:new 0 0 100 100;" xml:space="preserve">
<style type="text/css">
	.st0{fill:#6C6D73;}
</style>
<g>
	<path class="st0" d="M38.1,49.9c0-6.1-4.9-11-11-11s-11,4.9-11,11s4.9,11,11,11l0,0C33.2,60.9,38.1,56,38.1,49.9z M19.4,49.9
		c0-4.3,3.4-7.7,7.7-7.7s7.7,3.4,7.7,7.7s-3.4,7.7-7.7,7.7h0C22.9,57.6,19.4,54.2,19.4,49.9z"/>
	<path class="st0" d="M98.6,56.8V46.6c0-2.6-2.1-4.8-4.8-4.8c0,0,0,0,0,0H51.5c-2.1-6.3-6.5-11.6-12.4-14.7
		c-0.8-0.4-1.8-0.1-2.2,0.7c-0.4,0.8-0.1,1.8,0.7,2.2c0,0,0,0,0,0c11,5.8,15.2,19.4,9.4,30.4c-3.7,6.9-10.7,11.5-18.5,11.9l2.2-2.6
		c0.6-0.7,0.5-1.7-0.2-2.3c-0.7-0.6-1.7-0.5-2.3,0.2l0,0L23.6,73c-0.6,0.7-0.5,1.7,0.2,2.3c0,0,0,0,0,0l5.4,4.6
		c0.3,0.3,0.7,0.4,1.1,0.4c0.5,0,0.9-0.2,1.2-0.6c0.6-0.7,0.5-1.7-0.2-2.3c0,0,0,0,0,0l-2.1-1.8C43.3,74.4,53.9,62,52.7,47.8
		c-0.1-0.9-0.2-1.8-0.4-2.7h41.5c0.8,0,1.5,0.7,1.5,1.5v12.3l0,0v2.6c0.1,1.8-1.4,3.3-3.2,3.4c0,0,0,0-0.1,0h-0.8
		c-1.9,0-3.4-1.5-3.4-3.4V57c0-0.9-0.7-1.6-1.6-1.6c-0.1,0-0.2,0-0.4,0h-7.4c-0.1,0-0.2,0-0.4,0c-0.9,0-1.6,0.7-1.6,1.6v4.6
		c0.1,1.8-1.4,3.3-3.2,3.4c0,0,0,0-0.1,0h-0.8c-1.9,0-3.4-1.5-3.4-3.4V57c0-0.9-0.7-1.6-1.6-1.6h-7.9c-0.9,0-1.6,0.7-1.6,1.6
		c0,0.9,0.7,1.6,1.6,1.6H66v3c0,3.7,3,6.6,6.7,6.7h0.8c3.6,0,6.5-2.9,6.5-6.5c0-0.1,0-0.1,0-0.2v-3h4.8v3c0,3.7,3,6.6,6.7,6.7h0.8
		c3.6,0,6.5-2.9,6.5-6.5c0-0.1,0-0.1,0-0.2V57C98.6,56.9,98.6,56.8,98.6,56.8z"/>
	<path class="st0" d="M16.6,69.8C5.6,64,1.4,50.4,7.2,39.4c3.8-7.3,11.3-11.9,19.6-12l-2.4,2.8c-0.6,0.7-0.5,1.7,0.2,2.3
		c0.3,0.3,0.7,0.4,1.1,0.4c0.5,0,0.9-0.2,1.2-0.6l4.6-5.4c0.3-0.3,0.4-0.7,0.4-1.2c0-0.4-0.2-0.8-0.5-1.1l-5.4-4.6
		c-0.7-0.6-1.7-0.5-2.3,0.1c-0.6,0.7-0.5,1.7,0.1,2.3c0,0,0,0,0,0l1.8,1.6c-14.2,0.8-25,13-24.2,27.2c0.5,9,5.7,17.1,13.7,21.3
		c0.2,0.1,0.5,0.2,0.8,0.2c0.6,0,1.2-0.3,1.4-0.9C17.7,71.2,17.4,70.2,16.6,69.8z"/>
</g>
</svg>
