<svg width="54" height="54" viewBox="0 0 54 54" fill="none" xmlns="http://www.w3.org/2000/svg">
<g filter="url(#filter0_di_18_235)">
<circle cx="27" cy="27" r="20" fill="white"/>
<circle cx="27" cy="27" r="19.5" stroke="#2DCFC1"/>
</g>
<path fill-rule="evenodd" clip-rule="evenodd" d="M28.0317 19.0013C28.0324 18.449 27.5853 18.0007 27.033 18C26.4807 17.9993 26.0324 18.4465 26.0317 18.9987L26.0234 25.6151H19.6743C19.122 25.6151 18.6743 26.0628 18.6743 26.6151C18.6743 27.1673 19.122 27.6151 19.6743 27.6151H26.0209L26.0126 34.2289C26.0119 34.7811 26.459 35.2294 27.0113 35.2301C27.5636 35.2308 28.0119 34.7837 28.0126 34.2314L28.0209 27.6151H34.3255C34.8778 27.6151 35.3255 27.1673 35.3255 26.6151C35.3255 26.0628 34.8778 25.6151 34.3255 25.6151H28.0234L28.0317 19.0013Z" fill="#344055"/>
<defs>
<filter id="filter0_di_18_235" x="0" y="0" width="54" height="54" filterUnits="userSpaceOnUse" color-interpolation-filters="sRGB">
<feFlood flood-opacity="0" result="BackgroundImageFix"/>
<feColorMatrix in="SourceAlpha" type="matrix" values="0 0 0 0 0 0 0 0 0 0 0 0 0 0 0 0 0 0 127 0" result="hardAlpha"/>
<feOffset/>
<feGaussianBlur stdDeviation="3.5"/>
<feComposite in2="hardAlpha" operator="out"/>
<feColorMatrix type="matrix" values="0 0 0 0 0.188889 0 0 0 0 0.708333 0 0 0 0 0.663443 0 0 0 1 0"/>
<feBlend mode="normal" in2="BackgroundImageFix" result="effect1_dropShadow_18_235"/>
<feBlend mode="normal" in="SourceGraphic" in2="effect1_dropShadow_18_235" result="shape"/>
<feColorMatrix in="SourceAlpha" type="matrix" values="0 0 0 0 0 0 0 0 0 0 0 0 0 0 0 0 0 0 127 0" result="hardAlpha"/>
<feOffset/>
<feGaussianBlur stdDeviation="4"/>
<feComposite in2="hardAlpha" operator="arithmetic" k2="-1" k3="1"/>
<feColorMatrix type="matrix" values="0 0 0 0 0.535469 0 0 0 0 0.8625 0 0 0 0 0.834237 0 0 0 1 0"/>
<feBlend mode="normal" in2="shape" result="effect2_innerShadow_18_235"/>
</filter>
</defs>
</svg>
