<svg width="1024" height="1024" viewBox="0 0 1024 1024" fill="none" xmlns="http://www.w3.org/2000/svg">
<path d="M924.3 338.4C901.864 284.852 869.224 236.182 828.2 195.1C787.298 153.947 738.712 121.228 685.2 98.7999C630.381 75.7131 571.482 63.8788 512 63.9999H510C449.5 64.2999 391 76.2999 335.9 99.8999C282.847 122.557 234.717 155.335 194.2 196.4C153.573 237.389 121.307 285.89 99.2001 339.2C76.2516 394.636 64.6235 454.103 65.0001 514.1C65.3001 583.5 81.9001 652.4 112.9 714V866C112.9 891.4 133.5 912 158.8 912H310.6C372.487 943.228 440.781 959.66 510.1 960H512.2C572 960 629.9 948.4 684.5 925.7C737.741 903.54 786.146 871.202 827 830.5C868.2 789.6 900.6 741.8 923.3 688.5C946.8 633.3 958.8 574.6 959.1 514C959.3 453.1 947.5 394 924.3 338.4ZM312.4 560C286 560 264.5 538.5 264.5 512C264.5 485.5 286 464 312.4 464C338.8 464 360.3 485.5 360.3 512C360.3 538.5 338.9 560 312.4 560ZM512 560C485.6 560 464.1 538.5 464.1 512C464.1 485.5 485.6 464 512 464C538.4 464 559.9 485.5 559.9 512C559.9 538.5 538.4 560 512 560ZM711.6 560C685.2 560 663.7 538.5 663.7 512C663.7 485.5 685.2 464 711.6 464C738 464 759.5 485.5 759.5 512C759.5 538.5 738 560 711.6 560Z" fill="white"/>
</svg>
