<svg width="21" height="23" viewBox="0 0 21 23" fill="none" xmlns="http://www.w3.org/2000/svg">
<path id="Vector" d="M0.852539 5.84615H19.8525M6.39421 5.84615V5.03846C6.39421 3.9674 6.81124 2.9402 7.55358 2.18284C8.29591 1.42548 9.30272 1 10.3525 1C11.4024 1 12.4092 1.42548 13.1515 2.18284C13.8938 2.9402 14.3109 3.9674 14.3109 5.03846V5.84615M7.97754 9.07692V17.9615M12.7275 9.07692V17.9615M3.22754 5.84615H17.4775V20.3846C17.4775 20.813 17.3107 21.2239 17.0138 21.5269C16.7169 21.8298 16.3141 22 15.8942 22H4.81087C4.39095 22 3.98822 21.8298 3.69129 21.5269C3.39435 21.2239 3.22754 20.813 3.22754 20.3846V5.84615Z" stroke="#6D7081" stroke-width="1.7" stroke-linecap="round" stroke-linejoin="round"/>
</svg>
