<svg width="23" height="18" viewBox="0 0 23 18" fill="none" xmlns="http://www.w3.org/2000/svg">
<path id="Union" fill-rule="evenodd" clip-rule="evenodd" d="M6.36484 7.85241C6.23629 7.98024 6.07144 8.07468 5.88162 8.11776C4.05471 8.53239 2.75098 10.0821 2.75098 11.8701C2.75098 13.9579 4.53835 15.7292 6.84275 15.7292C7.23643 15.7292 7.61535 15.677 7.97294 15.5803C8.50606 15.4361 9.05516 15.7513 9.19938 16.2845C9.34361 16.8176 9.02834 17.3667 8.49522 17.5109C7.96837 17.6534 7.41387 17.7292 6.84275 17.7292C3.52293 17.7292 0.750977 15.1495 0.750977 11.8701C0.750977 9.27529 2.49221 7.11363 4.85914 6.32886C5.21659 2.8416 8.28671 0.179871 11.9345 0.179871C15.5993 0.179871 18.681 2.86638 19.0147 6.37751C21.3095 7.20012 22.9819 9.3271 22.9819 11.8701C22.9819 15.1495 20.21 17.7292 16.8901 17.7292C16.319 17.7292 15.7645 17.6534 15.2376 17.5109C14.7045 17.3667 14.3893 16.8176 14.5335 16.2845C14.6777 15.7513 15.2268 15.4361 15.7599 15.5803C16.1175 15.677 16.4964 15.7292 16.8901 15.7292C19.1945 15.7292 20.9819 13.9579 20.9819 11.8701C20.9819 10.0821 19.6782 8.53239 17.8512 8.11777C17.4352 8.02334 17.1391 7.68215 17.0823 7.2835C17.0578 7.19683 17.0447 7.10539 17.0447 7.01088C17.0447 4.38635 14.8014 2.17987 11.9345 2.17987C9.06771 2.17987 6.8244 4.38635 6.8244 7.01088C6.8244 7.36408 6.6413 7.6745 6.36484 7.85241ZM11.2429 6.73747C11.6281 6.36869 12.2349 6.36701 12.6221 6.73365L16.2535 10.1722C16.6545 10.5519 16.6718 11.1849 16.292 11.5859C15.9123 11.9869 15.2794 12.0042 14.8783 11.6244L12.9345 9.78387V15.7575C12.9345 16.3097 12.4868 16.7575 11.9345 16.7575C11.3822 16.7575 10.9345 16.3097 10.9345 15.7575V9.80168L9.09518 11.5628C8.69627 11.9447 8.06325 11.931 7.6813 11.5321C7.29935 11.1332 7.31311 10.5001 7.71202 10.1182L11.2429 6.73747Z" fill="white"/>
</svg>
